<?xml version="1.0" encoding="UTF-8"?>
<svg id="Layer_1" data-name="Layer 1" xmlns="http://www.w3.org/2000/svg" viewBox="0 0 943.04 279.54">
  <defs>
    <style>
      .cls-1 {
        font-size: 119.51px;
      }

      .cls-1, .cls-2, .cls-3 {
        fill: #164d87;
      }

      .cls-1, .cls-3 {
        font-family: Helvetica-Bold, Helvetica;
        font-weight: 700;
      }

      .cls-4 {
        letter-spacing: 0em;
      }

      .cls-3 {
        font-size: 130.03px;
      }

      .cls-5 {
        letter-spacing: -.02em;
      }

      .cls-6 {
        letter-spacing: -.05em;
      }
    </style>
  </defs>
  <path class="cls-2" d="M219.84,253.25c-1.87-1.4-24.27-23.34-26.14-26.14-1.87-2.33-2.33-5.6-1.4-7.93.93-1.4.93-2.33.47-2.8l-.47-.47-1.4.93c-8.4,6.07-19.14,9.8-29.87,9.8-8.87,0-15.4-1.4-23.34-5.6-14-7.47-23.34-20.07-26.6-35.47-1.87-8.87-.93-19.6,2.8-28.47,6.07-14.93,19.6-26.6,35.47-30.34,2.33-.47,6.07-.93,9.8-1.4,5.13,0,7,0,11.2.93,15.4,3.27,28,12.6,35.47,26.6,4.2,7.93,5.6,14.47,5.6,23.34,0,10.73-3.73,21.94-9.8,29.87l-1.4,1.87.47.47c.93.47,1.4.47,2.33,0,1.87-.47,3.27-.47,6.07,0,1.4.47,3.73,2.8,14,13.07,7,7,13.07,13.07,14,14.47,1.4,2.33,1.4,6.07,0,8.4-.93,2.33-5.6,7-7.93,8.4-2.8,1.87-7,1.87-9.33.47ZM170.37,211.24c12.6-3.73,21.94-13.07,25.67-26.14.93-2.8.93-4.67.93-8.87,0-6.53-.47-9.8-3.27-15.87-9.8-19.6-34.54-27.07-52.74-14.93-15.4,10.73-21,30.34-12.6,46.67,4.67,10.27,15.4,18.2,26.6,20.07,3.73.47,11.2,0,15.4-.93ZM21.02,235.04c-7.47-1.4-14.47-7-17.74-13.53C-.45,214.98.02,222.44.02,125.37S.02,36.22,2.82,29.69c1.87-4.2,7.47-9.8,11.67-11.67,6.53-2.8,0-2.8,95.68-2.8s89.61-.47,96.14,3.27c4.67,2.33,9.33,6.53,11.2,11.2,3.27,6.53,3.27,3.73,3.27,66.74v56.47l-2.8-6.07c-3.73-7.47-6.53-11.2-12.13-16.8q-3.73-3.73-3.73-40.6v-37.34H18.69v79.81q.47,79.81,1.4,81.21c.47.93,1.87,2.33,2.8,2.8q2.33,1.4,45.27,1.4t47.14,3.73c5.6,5.6,10.73,9.33,16.8,12.13l5.6,2.8h-56.94c-46.67,0-57.41,0-59.74-.93ZM45.76,171.57v-9.33h18.67v18.67h-18.67v-9.33ZM82.63,171.57v-9.33h15.87v.47s-.47,1.87-.93,4.2c0,1.87-.47,6.07-.93,8.87v5.13h-14v-9.33ZM45.76,134.7v-9.33h18.67v18.67h-18.67v-9.33ZM82.63,134.7v-9.33h37.8v.93h-.47c-.47,0-7,6.07-9.33,8.87-.93,1.87-2.8,4.2-3.73,6.07q-1.87,2.8-13.07,2.8h-11.2v-9.33ZM45.76,97.83v-9.33h18.67v18.67h-18.67v-9.33ZM82.63,97.83v-9.33h92.41v18.67h-92.41v-9.33ZM.02,15.22.02,15.22.02,15.22.02,15.22.02,15.22.02,15.22.02,15.22"/>
  <text class="cls-1" transform="translate(231.04 102.76)"><tspan class="cls-6" x="0" y="0">F</tspan><tspan x="66.47" y="0">AKE NEWS</tspan></text>
  <text class="cls-3" transform="translate(230.15 217)"><tspan x="0" y="0">DETEC</tspan><tspan class="cls-5" x="440.7" y="0">T</tspan><tspan class="cls-4" x="517.84" y="0">OR</tspan></text>
</svg>